<?xml version="1.0" encoding="UTF-8" standalone="no"?>
<!DOCTYPE svg PUBLIC "-//W3C//DTD SVG 1.1//EN"
 "http://www.w3.org/Graphics/SVG/1.1/DTD/svg11.dtd">
<!-- Generated by graphviz version 2.40.1 (20161225.0304)
 -->
<!-- Title: UmlClassDiagram Pages: 1 -->
<svg width="2306pt" height="642pt"
 viewBox="0.00 0.00 2305.74 642.20" xmlns="http://www.w3.org/2000/svg" xmlns:xlink="http://www.w3.org/1999/xlink">
<g id="graph0" class="graph" transform="scale(1 1) rotate(0) translate(4 638.2)">
<title>UmlClassDiagram</title>
<polygon fill="#ffffff" stroke="transparent" points="-4,4 -4,-638.2 2301.7443,-638.2 2301.7443,4 -4,4"/>
<!-- 0 -->
<g id="node1" class="node">
<title>0</title>
<polygon fill="#f2f2f2" stroke="#000000" points="1270.1927,-179.1 1270.1927,-471.9 1975.4841,-471.9 1975.4841,-179.1 1270.1927,-179.1"/>
<text text-anchor="middle" x="1622.8384" y="-455.3" font-family="Times,serif" font-size="14.00" fill="#000000">ExchangeWrapper</text>
<polyline fill="none" stroke="#000000" points="1270.1927,-447.1 1975.4841,-447.1 "/>
<text text-anchor="start" x="1278.1927" y="-430.5" font-family="Times,serif" font-size="14.00" fill="#000000">Public:</text>
<text text-anchor="start" x="1278.1927" y="-413.7" font-family="Times,serif" font-size="14.00" fill="#000000"> &#160;&#160;wyvernExchange: IWyvernExchange</text>
<text text-anchor="start" x="1278.1927" y="-396.9" font-family="Times,serif" font-size="14.00" fill="#000000"> &#160;&#160;exchangeV2: IExchangeV2</text>
<polyline fill="none" stroke="#000000" points="1270.1927,-388.7 1975.4841,-388.7 "/>
<text text-anchor="start" x="1278.1927" y="-372.1" font-family="Times,serif" font-size="14.00" fill="#000000">Internal:</text>
<text text-anchor="start" x="1278.1927" y="-355.3" font-family="Times,serif" font-size="14.00" fill="#000000"> &#160;&#160;&#160;purchase(purchaseDetails: PurchaseDetails)</text>
<text text-anchor="start" x="1278.1927" y="-338.5" font-family="Times,serif" font-size="14.00" fill="#000000"> &#160;&#160;&#160;feesTransfer(amount: uint, fees: uint[])</text>
<text text-anchor="start" x="1278.1927" y="-321.7" font-family="Times,serif" font-size="14.00" fill="#000000"> &#160;&#160;&#160;changeTransfer()</text>
<text text-anchor="start" x="1278.1927" y="-304.9" font-family="Times,serif" font-size="14.00" fill="#000000"> &#160;&#160;&#160;matchExchangeV2(sellOrder: LibOrder.Order, sellOrderSignature: bytes, paymentAmount: uint, purchaseAmount: uint)</text>
<text text-anchor="start" x="1278.1927" y="-288.1" font-family="Times,serif" font-size="14.00" fill="#000000">External:</text>
<text text-anchor="start" x="1278.1927" y="-271.3" font-family="Times,serif" font-size="14.00" fill="#000000"> &#160;&#160;&#160;&lt;&lt;payable&gt;&gt; singlePurchase(purchaseDetails: PurchaseDetails, fees: uint[])</text>
<text text-anchor="start" x="1278.1927" y="-254.5" font-family="Times,serif" font-size="14.00" fill="#000000"> &#160;&#160;&#160;&lt;&lt;payable&gt;&gt; bulkPurchase(purchaseDetails: PurchaseDetails[], fees: uint[])</text>
<text text-anchor="start" x="1278.1927" y="-237.7" font-family="Times,serif" font-size="14.00" fill="#000000"> &#160;&#160;&#160;&lt;&lt;payable&gt;&gt; null()</text>
<text text-anchor="start" x="1278.1927" y="-220.9" font-family="Times,serif" font-size="14.00" fill="#000000"> &#160;&#160;&#160;__ExchangeWrapper_init(_wyvernExchange: IWyvernExchange, _exchangeV2: IExchangeV2)</text>
<text text-anchor="start" x="1278.1927" y="-204.1" font-family="Times,serif" font-size="14.00" fill="#000000"> &#160;&#160;&#160;setWyvern(_wyvernExchange: IWyvernExchange)</text>
<text text-anchor="start" x="1278.1927" y="-187.3" font-family="Times,serif" font-size="14.00" fill="#000000"> &#160;&#160;&#160;setExchange(_exchangeV2: IExchangeV2)</text>
</g>
<!-- 2 -->
<g id="node5" class="node">
<title>2</title>
<polygon fill="#f2f2f2" stroke="#000000" points="1625.9325,-517.3 1625.9325,-625.3 2297.7443,-625.3 2297.7443,-517.3 1625.9325,-517.3"/>
<text text-anchor="middle" x="1961.8384" y="-608.7" font-family="Times,serif" font-size="14.00" fill="#000000">&lt;&lt;Interface&gt;&gt;</text>
<text text-anchor="middle" x="1961.8384" y="-591.9" font-family="Times,serif" font-size="14.00" fill="#000000">IExchangeV2</text>
<polyline fill="none" stroke="#000000" points="1625.9325,-583.7 2297.7443,-583.7 "/>
<text text-anchor="middle" x="1961.8384" y="-567.1" font-family="Times,serif" font-size="14.00" fill="#000000"> </text>
<polyline fill="none" stroke="#000000" points="1625.9325,-558.9 2297.7443,-558.9 "/>
<text text-anchor="start" x="1633.9325" y="-542.3" font-family="Times,serif" font-size="14.00" fill="#000000">External:</text>
<text text-anchor="start" x="1633.9325" y="-525.5" font-family="Times,serif" font-size="14.00" fill="#000000"> &#160;&#160;&#160;&#160;matchOrders(orderLeft: LibOrder.Order, signatureLeft: bytes, orderRight: LibOrder.Order, signatureRight: bytes)</text>
</g>
<!-- 0&#45;&gt;2 -->
<g id="edge6" class="edge">
<title>0&#45;&gt;2</title>
<path fill="none" stroke="#000000" d="M1824.9313,-472.0322C1843.8187,-485.727 1862.145,-499.0149 1878.9237,-511.1808"/>
<polygon fill="#000000" stroke="#000000" points="1876.8816,-514.0232 1887.0319,-517.0598 1880.9906,-508.3562 1876.8816,-514.0232"/>
</g>
<!-- 3 -->
<g id="node6" class="node">
<title>3</title>
<polygon fill="#f2f2f2" stroke="#000000" points="0,-508.9 0,-633.7 1607.6768,-633.7 1607.6768,-508.9 0,-508.9"/>
<text text-anchor="middle" x="803.8384" y="-617.1" font-family="Times,serif" font-size="14.00" fill="#000000">&lt;&lt;Interface&gt;&gt;</text>
<text text-anchor="middle" x="803.8384" y="-600.3" font-family="Times,serif" font-size="14.00" fill="#000000">IWyvernExchange</text>
<polyline fill="none" stroke="#000000" points="0,-592.1 1607.6768,-592.1 "/>
<text text-anchor="middle" x="803.8384" y="-575.5" font-family="Times,serif" font-size="14.00" fill="#000000"> </text>
<polyline fill="none" stroke="#000000" points="0,-567.3 1607.6768,-567.3 "/>
<text text-anchor="start" x="8" y="-550.7" font-family="Times,serif" font-size="14.00" fill="#000000">External:</text>
<text text-anchor="start" x="8" y="-533.9" font-family="Times,serif" font-size="14.00" fill="#000000"> &#160;&#160;&#160;&#160;atomicMatch_(addrs: address[], uints: uint[], feeMethodsSidesKindsHowToCalls: uint8[], calldataBuy: bytes, calldataSell: bytes, replacementPatternBuy: bytes, replacementPatternSell: bytes, staticExtradataBuy: bytes, staticExtradataSell: bytes, vs: uint8[], rssMetadata: bytes32[])</text>
<text text-anchor="start" x="8" y="-517.1" font-family="Times,serif" font-size="14.00" fill="#000000"> &#160;&#160;&#160;&#160;calculateFinalPrice(side: Side, saleKind: SaleKind, basePrice: uint256, extra: uint256, listingTime: uint256, expirationTime: uint256): uint256</text>
</g>
<!-- 0&#45;&gt;3 -->
<g id="edge5" class="edge">
<title>0&#45;&gt;3</title>
<path fill="none" stroke="#000000" d="M1270.161,-431.3463C1185.7164,-456.69 1097.9843,-483.0203 1021.706,-505.9131"/>
<polygon fill="#000000" stroke="#000000" points="1020.5546,-502.6044 1011.9828,-508.8313 1022.5669,-509.3089 1020.5546,-502.6044"/>
</g>
<!-- 0struct0 -->
<g id="node2" class="node">
<title>0struct0</title>
<polygon fill="#f2f2f2" stroke="#000000" points="1490.9425,-21.3 1490.9425,-121.3 1610.7343,-121.3 1610.7343,-21.3 1490.9425,-21.3"/>
<text text-anchor="middle" x="1550.8384" y="-104.7" font-family="Times,serif" font-size="14.00" fill="#000000">&lt;&lt;struct&gt;&gt;</text>
<text text-anchor="middle" x="1550.8384" y="-87.9" font-family="Times,serif" font-size="14.00" fill="#000000">PurchaseDetails</text>
<polyline fill="none" stroke="#000000" points="1490.9425,-79.7 1610.7343,-79.7 "/>
<text text-anchor="start" x="1498.9425" y="-63.1" font-family="Times,serif" font-size="14.00" fill="#000000">marketId: Markets</text>
<text text-anchor="start" x="1498.9425" y="-46.3" font-family="Times,serif" font-size="14.00" fill="#000000">amount: uint256</text>
<text text-anchor="start" x="1498.9425" y="-29.5" font-family="Times,serif" font-size="14.00" fill="#000000">data: bytes</text>
</g>
<!-- 0struct0&#45;&gt;0 -->
<g id="edge1" class="edge">
<title>0struct0&#45;&gt;0</title>
<path fill="none" stroke="#000000" d="M1565.0633,-121.5217C1568.9382,-135.2024 1573.3523,-150.7864 1577.9742,-167.1044"/>
<polygon fill="#000000" stroke="#000000" points="1578.1013,-167.5536 1583.5851,-172.2364 1581.3717,-179.0994 1575.8879,-174.4166 1578.1013,-167.5536"/>
</g>
<!-- 0enum0 -->
<g id="node3" class="node">
<title>0enum0</title>
<polygon fill="#f2f2f2" stroke="#000000" points="1628.5,-29.7 1628.5,-112.9 1759.1768,-112.9 1759.1768,-29.7 1628.5,-29.7"/>
<text text-anchor="middle" x="1693.8384" y="-96.3" font-family="Times,serif" font-size="14.00" fill="#000000">&lt;&lt;enum&gt;&gt;</text>
<text text-anchor="middle" x="1693.8384" y="-79.5" font-family="Times,serif" font-size="14.00" fill="#000000">Markets</text>
<polyline fill="none" stroke="#000000" points="1628.5,-71.3 1759.1768,-71.3 "/>
<text text-anchor="start" x="1636.5" y="-54.7" font-family="Times,serif" font-size="14.00" fill="#000000">ExchangeV2: 0</text>
<text text-anchor="start" x="1636.5" y="-37.9" font-family="Times,serif" font-size="14.00" fill="#000000">WyvernExchange: 1</text>
</g>
<!-- 0enum0&#45;&gt;0 -->
<g id="edge2" class="edge">
<title>0enum0&#45;&gt;0</title>
<path fill="none" stroke="#000000" d="M1682.1937,-112.9913C1677.8362,-128.5922 1672.5863,-147.3885 1667.034,-167.2674"/>
<polygon fill="#000000" stroke="#000000" points="1666.9626,-167.5234 1669.201,-174.3783 1663.7343,-179.081 1661.4959,-172.2261 1666.9626,-167.5234"/>
</g>
<!-- 1 -->
<g id="node4" class="node">
<title>1</title>
<polygon fill="#f2f2f2" stroke="#000000" points="1776.9404,-.5 1776.9404,-142.1 1980.7364,-142.1 1980.7364,-.5 1776.9404,-.5"/>
<text text-anchor="middle" x="1878.8384" y="-125.5" font-family="Times,serif" font-size="14.00" fill="#000000">Migrations</text>
<polyline fill="none" stroke="#000000" points="1776.9404,-117.3 1980.7364,-117.3 "/>
<text text-anchor="start" x="1784.9404" y="-100.7" font-family="Times,serif" font-size="14.00" fill="#000000">Public:</text>
<text text-anchor="start" x="1784.9404" y="-83.9" font-family="Times,serif" font-size="14.00" fill="#000000"> &#160;&#160;owner: address</text>
<text text-anchor="start" x="1784.9404" y="-67.1" font-family="Times,serif" font-size="14.00" fill="#000000"> &#160;&#160;last_completed_migration: uint</text>
<polyline fill="none" stroke="#000000" points="1776.9404,-58.9 1980.7364,-58.9 "/>
<text text-anchor="start" x="1784.9404" y="-42.3" font-family="Times,serif" font-size="14.00" fill="#000000">Public:</text>
<text text-anchor="start" x="1784.9404" y="-25.5" font-family="Times,serif" font-size="14.00" fill="#000000"> &#160;&#160;&#160;&lt;&lt;modifier&gt;&gt; restricted()</text>
<text text-anchor="start" x="1784.9404" y="-8.7" font-family="Times,serif" font-size="14.00" fill="#000000"> &#160;&#160;&#160;setCompleted(completed: uint)</text>
</g>
<!-- 3enum0 -->
<g id="node7" class="node">
<title>3enum0</title>
<polygon fill="#f2f2f2" stroke="#000000" points="708.4966,-283.9 708.4966,-367.1 787.1802,-367.1 787.1802,-283.9 708.4966,-283.9"/>
<text text-anchor="middle" x="747.8384" y="-350.5" font-family="Times,serif" font-size="14.00" fill="#000000">&lt;&lt;enum&gt;&gt;</text>
<text text-anchor="middle" x="747.8384" y="-333.7" font-family="Times,serif" font-size="14.00" fill="#000000">Side</text>
<polyline fill="none" stroke="#000000" points="708.4966,-325.5 787.1802,-325.5 "/>
<text text-anchor="start" x="716.4966" y="-308.9" font-family="Times,serif" font-size="14.00" fill="#000000">Buy: 0</text>
<text text-anchor="start" x="716.4966" y="-292.1" font-family="Times,serif" font-size="14.00" fill="#000000">Sell: 1</text>
</g>
<!-- 3enum0&#45;&gt;3 -->
<g id="edge3" class="edge">
<title>3enum0&#45;&gt;3</title>
<path fill="none" stroke="#000000" d="M757.338,-367.1966C765.4102,-402.6276 777.1954,-454.3564 786.8813,-496.8704"/>
<polygon fill="#000000" stroke="#000000" points="786.887,-496.8958 792.1199,-501.8573 789.5527,-508.596 784.3198,-503.6345 786.887,-496.8958"/>
</g>
<!-- 3enum1 -->
<g id="node8" class="node">
<title>3enum1</title>
<polygon fill="#f2f2f2" stroke="#000000" points="804.986,-283.9 804.986,-367.1 914.6908,-367.1 914.6908,-283.9 804.986,-283.9"/>
<text text-anchor="middle" x="859.8384" y="-350.5" font-family="Times,serif" font-size="14.00" fill="#000000">&lt;&lt;enum&gt;&gt;</text>
<text text-anchor="middle" x="859.8384" y="-333.7" font-family="Times,serif" font-size="14.00" fill="#000000">SaleKind</text>
<polyline fill="none" stroke="#000000" points="804.986,-325.5 914.6908,-325.5 "/>
<text text-anchor="start" x="812.986" y="-308.9" font-family="Times,serif" font-size="14.00" fill="#000000">FixedPrice: 0</text>
<text text-anchor="start" x="812.986" y="-292.1" font-family="Times,serif" font-size="14.00" fill="#000000">DutchAuction: 1</text>
</g>
<!-- 3enum1&#45;&gt;3 -->
<g id="edge4" class="edge">
<title>3enum1&#45;&gt;3</title>
<path fill="none" stroke="#000000" d="M850.3388,-367.1966C842.2666,-402.6276 830.4814,-454.3564 820.7955,-496.8704"/>
<polygon fill="#000000" stroke="#000000" points="820.7898,-496.8958 823.357,-503.6345 818.1241,-508.596 815.5569,-501.8573 820.7898,-496.8958"/>
</g>
</g>
</svg>
