<?xml version="1.0" encoding="UTF-8" standalone="no"?>
<!DOCTYPE svg PUBLIC "-//W3C//DTD SVG 1.1//EN"
 "http://www.w3.org/Graphics/SVG/1.1/DTD/svg11.dtd">
<!-- Generated by graphviz version 2.40.1 (20161225.0304)
 -->
<!-- Title: UmlClassDiagram Pages: 1 -->
<svg width="596pt" height="117pt"
 viewBox="0.00 0.00 596.03 117.00" xmlns="http://www.w3.org/2000/svg" xmlns:xlink="http://www.w3.org/1999/xlink">
<g id="graph0" class="graph" transform="scale(1 1) rotate(0) translate(4 113)">
<title>UmlClassDiagram</title>
<polygon fill="#ffffff" stroke="transparent" points="-4,4 -4,-113 592.0324,-113 592.0324,4 -4,4"/>
<!-- 0 -->
<g id="node1" class="node">
<title>0</title>
<polygon fill="#f2f2f2" stroke="#000000" points="0,-.5 0,-108.5 285.0324,-108.5 285.0324,-.5 0,-.5"/>
<text text-anchor="middle" x="142.5162" y="-91.9" font-family="Times,serif" font-size="14.00" fill="#000000">&lt;&lt;Abstract&gt;&gt;</text>
<text text-anchor="middle" x="142.5162" y="-75.1" font-family="Times,serif" font-size="14.00" fill="#000000">RoyaltiesV1Upgradeable</text>
<polyline fill="none" stroke="#000000" points="0,-66.9 285.0324,-66.9 "/>
<text text-anchor="middle" x="142.5162" y="-50.3" font-family="Times,serif" font-size="14.00" fill="#000000"> </text>
<polyline fill="none" stroke="#000000" points="0,-42.1 285.0324,-42.1 "/>
<text text-anchor="start" x="8" y="-25.5" font-family="Times,serif" font-size="14.00" fill="#000000">Internal:</text>
<text text-anchor="start" x="8" y="-8.7" font-family="Times,serif" font-size="14.00" fill="#000000"> &#160;&#160;&#160;__RoyaltiesV1Upgradeable_init_unchained()</text>
</g>
<!-- 1 -->
<g id="node2" class="node">
<title>1</title>
<polygon fill="#f2f2f2" stroke="#000000" points="303,-.5 303,-108.5 588.0324,-108.5 588.0324,-.5 303,-.5"/>
<text text-anchor="middle" x="445.5162" y="-91.9" font-family="Times,serif" font-size="14.00" fill="#000000">&lt;&lt;Abstract&gt;&gt;</text>
<text text-anchor="middle" x="445.5162" y="-75.1" font-family="Times,serif" font-size="14.00" fill="#000000">RoyaltiesV2Upgradeable</text>
<polyline fill="none" stroke="#000000" points="303,-66.9 588.0324,-66.9 "/>
<text text-anchor="middle" x="445.5162" y="-50.3" font-family="Times,serif" font-size="14.00" fill="#000000"> </text>
<polyline fill="none" stroke="#000000" points="303,-42.1 588.0324,-42.1 "/>
<text text-anchor="start" x="311" y="-25.5" font-family="Times,serif" font-size="14.00" fill="#000000">Internal:</text>
<text text-anchor="start" x="311" y="-8.7" font-family="Times,serif" font-size="14.00" fill="#000000"> &#160;&#160;&#160;__RoyaltiesV2Upgradeable_init_unchained()</text>
</g>
</g>
</svg>
