<?xml version="1.0" encoding="UTF-8" standalone="no"?>
<!DOCTYPE svg PUBLIC "-//W3C//DTD SVG 1.1//EN"
 "http://www.w3.org/Graphics/SVG/1.1/DTD/svg11.dtd">
<!-- Generated by graphviz version 2.40.1 (20161225.0304)
 -->
<!-- Title: UmlClassDiagram Pages: 1 -->
<svg width="1228pt" height="151pt"
 viewBox="0.00 0.00 1227.81 150.60" xmlns="http://www.w3.org/2000/svg" xmlns:xlink="http://www.w3.org/1999/xlink">
<g id="graph0" class="graph" transform="scale(1 1) rotate(0) translate(4 146.6)">
<title>UmlClassDiagram</title>
<polygon fill="#ffffff" stroke="transparent" points="-4,4 -4,-146.6 1223.8084,-146.6 1223.8084,4 -4,4"/>
<!-- 0 -->
<g id="node1" class="node">
<title>0</title>
<polygon fill="#f2f2f2" stroke="#000000" points="0,-17.3 0,-125.3 645.8208,-125.3 645.8208,-17.3 0,-17.3"/>
<text text-anchor="middle" x="322.9104" y="-108.7" font-family="Times,serif" font-size="14.00" fill="#000000">AssetMatcherCollection</text>
<polyline fill="none" stroke="#000000" points="0,-100.5 645.8208,-100.5 "/>
<text text-anchor="start" x="8" y="-83.9" font-family="Times,serif" font-size="14.00" fill="#000000">Public:</text>
<text text-anchor="start" x="8" y="-67.1" font-family="Times,serif" font-size="14.00" fill="#000000"> &#160;&#160;EMPTY: bytes</text>
<polyline fill="none" stroke="#000000" points="0,-58.9 645.8208,-58.9 "/>
<text text-anchor="start" x="8" y="-42.3" font-family="Times,serif" font-size="14.00" fill="#000000">External:</text>
<text text-anchor="start" x="8" y="-25.5" font-family="Times,serif" font-size="14.00" fill="#000000"> &#160;&#160;&#160;matchAssets(leftAssetType: LibAsset.AssetType, rightAssetType: LibAsset.AssetType): LibAsset.AssetType</text>
</g>
<!-- 1 -->
<g id="node2" class="node">
<title>1</title>
<polygon fill="#f2f2f2" stroke="#000000" points="663.9187,-25.7 663.9187,-116.9 997.9021,-116.9 997.9021,-25.7 663.9187,-25.7"/>
<text text-anchor="middle" x="830.9104" y="-100.3" font-family="Times,serif" font-size="14.00" fill="#000000">IExchangeV2</text>
<polyline fill="none" stroke="#000000" points="663.9187,-92.1 997.9021,-92.1 "/>
<text text-anchor="middle" x="830.9104" y="-75.5" font-family="Times,serif" font-size="14.00" fill="#000000"> </text>
<polyline fill="none" stroke="#000000" points="663.9187,-67.3 997.9021,-67.3 "/>
<text text-anchor="start" x="671.9187" y="-50.7" font-family="Times,serif" font-size="14.00" fill="#000000">External:</text>
<text text-anchor="start" x="671.9187" y="-33.9" font-family="Times,serif" font-size="14.00" fill="#000000"> &#160;&#160;&#160;setAssetMatcher(assetType: bytes4, matcher: address)</text>
</g>
<!-- 2 -->
<g id="node3" class="node">
<title>2</title>
<polygon fill="#f2f2f2" stroke="#000000" points="1016.0124,-.5 1016.0124,-142.1 1219.8084,-142.1 1219.8084,-.5 1016.0124,-.5"/>
<text text-anchor="middle" x="1117.9104" y="-125.5" font-family="Times,serif" font-size="14.00" fill="#000000">Migrations</text>
<polyline fill="none" stroke="#000000" points="1016.0124,-117.3 1219.8084,-117.3 "/>
<text text-anchor="start" x="1024.0124" y="-100.7" font-family="Times,serif" font-size="14.00" fill="#000000">Public:</text>
<text text-anchor="start" x="1024.0124" y="-83.9" font-family="Times,serif" font-size="14.00" fill="#000000"> &#160;&#160;owner: address</text>
<text text-anchor="start" x="1024.0124" y="-67.1" font-family="Times,serif" font-size="14.00" fill="#000000"> &#160;&#160;last_completed_migration: uint</text>
<polyline fill="none" stroke="#000000" points="1016.0124,-58.9 1219.8084,-58.9 "/>
<text text-anchor="start" x="1024.0124" y="-42.3" font-family="Times,serif" font-size="14.00" fill="#000000">Public:</text>
<text text-anchor="start" x="1024.0124" y="-25.5" font-family="Times,serif" font-size="14.00" fill="#000000"> &#160;&#160;&#160;&lt;&lt;modifier&gt;&gt; restricted()</text>
<text text-anchor="start" x="1024.0124" y="-8.7" font-family="Times,serif" font-size="14.00" fill="#000000"> &#160;&#160;&#160;setCompleted(completed: uint)</text>
</g>
</g>
</svg>
