<?xml version="1.0" encoding="UTF-8" standalone="no"?>
<!DOCTYPE svg PUBLIC "-//W3C//DTD SVG 1.1//EN"
 "http://www.w3.org/Graphics/SVG/1.1/DTD/svg11.dtd">
<!-- Generated by graphviz version 2.40.1 (20161225.0304)
 -->
<!-- Title: UmlClassDiagram Pages: 1 -->
<svg width="1647pt" height="380pt"
 viewBox="0.00 0.00 1647.24 379.60" xmlns="http://www.w3.org/2000/svg" xmlns:xlink="http://www.w3.org/1999/xlink">
<g id="graph0" class="graph" transform="scale(1 1) rotate(0) translate(4 375.6)">
<title>UmlClassDiagram</title>
<polygon fill="#ffffff" stroke="transparent" points="-4,4 -4,-375.6 1643.2393,-375.6 1643.2393,4 -4,4"/>
<!-- 0 -->
<g id="node1" class="node">
<title>0</title>
<polygon fill="#f2f2f2" stroke="#000000" points="0,-.5 0,-175.7 653.6426,-175.7 653.6426,-.5 0,-.5"/>
<text text-anchor="middle" x="326.8213" y="-159.1" font-family="Times,serif" font-size="14.00" fill="#000000">&lt;&lt;Interface&gt;&gt;</text>
<text text-anchor="middle" x="326.8213" y="-142.3" font-family="Times,serif" font-size="14.00" fill="#000000">IERC1155LazyMint</text>
<polyline fill="none" stroke="#000000" points="0,-134.1 653.6426,-134.1 "/>
<text text-anchor="middle" x="326.8213" y="-117.5" font-family="Times,serif" font-size="14.00" fill="#000000"> </text>
<polyline fill="none" stroke="#000000" points="0,-109.3 653.6426,-109.3 "/>
<text text-anchor="start" x="8" y="-92.7" font-family="Times,serif" font-size="14.00" fill="#000000">External:</text>
<text text-anchor="start" x="8" y="-75.9" font-family="Times,serif" font-size="14.00" fill="#000000"> &#160;&#160;&#160;&#160;mintAndTransfer(data: LibERC1155LazyMint.Mint1155Data, to: address, _amount: uint256)</text>
<text text-anchor="start" x="8" y="-59.1" font-family="Times,serif" font-size="14.00" fill="#000000"> &#160;&#160;&#160;&#160;transferFromOrMint(data: LibERC1155LazyMint.Mint1155Data, from: address, to: address, amount: uint256)</text>
<text text-anchor="start" x="8" y="-42.3" font-family="Times,serif" font-size="14.00" fill="#000000">Public:</text>
<text text-anchor="start" x="8" y="-25.5" font-family="Times,serif" font-size="14.00" fill="#000000"> &#160;&#160;&#160;&lt;&lt;event&gt;&gt; Supply(tokenId: uint256, value: uint256)</text>
<text text-anchor="start" x="8" y="-8.7" font-family="Times,serif" font-size="14.00" fill="#000000"> &#160;&#160;&#160;&lt;&lt;event&gt;&gt; Creators(tokenId: uint256, creators: LibPart.Part[])</text>
</g>
<!-- 1 -->
<g id="node2" class="node">
<title>1</title>
<polygon fill="#f2f2f2" stroke="#000000" points="578.4033,-212.7 578.4033,-371.1 913.2393,-371.1 913.2393,-212.7 578.4033,-212.7"/>
<text text-anchor="middle" x="745.8213" y="-354.5" font-family="Times,serif" font-size="14.00" fill="#000000">&lt;&lt;Library&gt;&gt;</text>
<text text-anchor="middle" x="745.8213" y="-337.7" font-family="Times,serif" font-size="14.00" fill="#000000">LibERC1155LazyMint</text>
<polyline fill="none" stroke="#000000" points="578.4033,-329.5 913.2393,-329.5 "/>
<text text-anchor="start" x="586.4033" y="-312.9" font-family="Times,serif" font-size="14.00" fill="#000000">Public:</text>
<text text-anchor="start" x="586.4033" y="-296.1" font-family="Times,serif" font-size="14.00" fill="#000000"> &#160;&#160;ERC1155_LAZY_ASSET_CLASS: bytes4</text>
<text text-anchor="start" x="586.4033" y="-279.3" font-family="Times,serif" font-size="14.00" fill="#000000"> &#160;&#160;_INTERFACE_ID_MINT_AND_TRANSFER: bytes4</text>
<text text-anchor="start" x="586.4033" y="-262.5" font-family="Times,serif" font-size="14.00" fill="#000000"> &#160;&#160;MINT_AND_TRANSFER_TYPEHASH: bytes32</text>
<polyline fill="none" stroke="#000000" points="578.4033,-254.3 913.2393,-254.3 "/>
<text text-anchor="start" x="586.4033" y="-237.7" font-family="Times,serif" font-size="14.00" fill="#000000">Internal:</text>
<text text-anchor="start" x="586.4033" y="-220.9" font-family="Times,serif" font-size="14.00" fill="#000000"> &#160;&#160;&#160;hash(data: Mint1155Data): bytes32</text>
</g>
<!-- 0&#45;&gt;1 -->
<g id="edge3" class="edge">
<title>0&#45;&gt;1</title>
<path fill="none" stroke="#000000" stroke-dasharray="5,2" d="M506.9467,-175.7123C529.0729,-186.4744 551.645,-197.4534 573.6494,-208.1563"/>
<polygon fill="#000000" stroke="#000000" points="572.186,-211.3365 582.7096,-212.5631 575.2478,-205.0416 572.186,-211.3365"/>
</g>
<!-- 1struct0 -->
<g id="node3" class="node">
<title>1struct0</title>
<polygon fill="#f2f2f2" stroke="#000000" points="671.3423,-12.9 671.3423,-163.3 820.3003,-163.3 820.3003,-12.9 671.3423,-12.9"/>
<text text-anchor="middle" x="745.8213" y="-146.7" font-family="Times,serif" font-size="14.00" fill="#000000">&lt;&lt;struct&gt;&gt;</text>
<text text-anchor="middle" x="745.8213" y="-129.9" font-family="Times,serif" font-size="14.00" fill="#000000">Mint1155Data</text>
<polyline fill="none" stroke="#000000" points="671.3423,-121.7 820.3003,-121.7 "/>
<text text-anchor="start" x="679.3423" y="-105.1" font-family="Times,serif" font-size="14.00" fill="#000000">tokenId: uint</text>
<text text-anchor="start" x="679.3423" y="-88.3" font-family="Times,serif" font-size="14.00" fill="#000000">tokenURI: string</text>
<text text-anchor="start" x="679.3423" y="-71.5" font-family="Times,serif" font-size="14.00" fill="#000000">supply: uint</text>
<text text-anchor="start" x="679.3423" y="-54.7" font-family="Times,serif" font-size="14.00" fill="#000000">creators: LibPart.Part[]</text>
<text text-anchor="start" x="679.3423" y="-37.9" font-family="Times,serif" font-size="14.00" fill="#000000">royalties: LibPart.Part[]</text>
<text text-anchor="start" x="679.3423" y="-21.1" font-family="Times,serif" font-size="14.00" fill="#000000">signatures: bytes[]</text>
</g>
<!-- 1struct0&#45;&gt;1 -->
<g id="edge1" class="edge">
<title>1struct0&#45;&gt;1</title>
<path fill="none" stroke="#000000" d="M745.8213,-163.4086C745.8213,-175.3994 745.8213,-187.9185 745.8213,-200.236"/>
<polygon fill="#000000" stroke="#000000" points="745.8214,-200.4593 749.8213,-206.4593 745.8213,-212.4593 741.8213,-206.4593 745.8214,-200.4593"/>
</g>
<!-- 2 -->
<g id="node4" class="node">
<title>2</title>
<polygon fill="#f2f2f2" stroke="#000000" points="838.5838,-8.9 838.5838,-167.3 1379.0588,-167.3 1379.0588,-8.9 838.5838,-8.9"/>
<text text-anchor="middle" x="1108.8213" y="-150.7" font-family="Times,serif" font-size="14.00" fill="#000000">&lt;&lt;Interface&gt;&gt;</text>
<text text-anchor="middle" x="1108.8213" y="-133.9" font-family="Times,serif" font-size="14.00" fill="#000000">IERC721LazyMint</text>
<polyline fill="none" stroke="#000000" points="838.5838,-125.7 1379.0588,-125.7 "/>
<text text-anchor="middle" x="1108.8213" y="-109.1" font-family="Times,serif" font-size="14.00" fill="#000000"> </text>
<polyline fill="none" stroke="#000000" points="838.5838,-100.9 1379.0588,-100.9 "/>
<text text-anchor="start" x="846.5838" y="-84.3" font-family="Times,serif" font-size="14.00" fill="#000000">External:</text>
<text text-anchor="start" x="846.5838" y="-67.5" font-family="Times,serif" font-size="14.00" fill="#000000"> &#160;&#160;&#160;&#160;mintAndTransfer(data: LibERC721LazyMint.Mint721Data, to: address)</text>
<text text-anchor="start" x="846.5838" y="-50.7" font-family="Times,serif" font-size="14.00" fill="#000000"> &#160;&#160;&#160;&#160;transferFromOrMint(data: LibERC721LazyMint.Mint721Data, from: address, to: address)</text>
<text text-anchor="start" x="846.5838" y="-33.9" font-family="Times,serif" font-size="14.00" fill="#000000">Public:</text>
<text text-anchor="start" x="846.5838" y="-17.1" font-family="Times,serif" font-size="14.00" fill="#000000"> &#160;&#160;&#160;&lt;&lt;event&gt;&gt; Creators(tokenId: uint256, creators: LibPart.Part[])</text>
</g>
<!-- 3 -->
<g id="node5" class="node">
<title>3</title>
<polygon fill="#f2f2f2" stroke="#000000" points="1304.4033,-212.7 1304.4033,-371.1 1639.2393,-371.1 1639.2393,-212.7 1304.4033,-212.7"/>
<text text-anchor="middle" x="1471.8213" y="-354.5" font-family="Times,serif" font-size="14.00" fill="#000000">&lt;&lt;Library&gt;&gt;</text>
<text text-anchor="middle" x="1471.8213" y="-337.7" font-family="Times,serif" font-size="14.00" fill="#000000">LibERC721LazyMint</text>
<polyline fill="none" stroke="#000000" points="1304.4033,-329.5 1639.2393,-329.5 "/>
<text text-anchor="start" x="1312.4033" y="-312.9" font-family="Times,serif" font-size="14.00" fill="#000000">Public:</text>
<text text-anchor="start" x="1312.4033" y="-296.1" font-family="Times,serif" font-size="14.00" fill="#000000"> &#160;&#160;ERC721_LAZY_ASSET_CLASS: bytes4</text>
<text text-anchor="start" x="1312.4033" y="-279.3" font-family="Times,serif" font-size="14.00" fill="#000000"> &#160;&#160;_INTERFACE_ID_MINT_AND_TRANSFER: bytes4</text>
<text text-anchor="start" x="1312.4033" y="-262.5" font-family="Times,serif" font-size="14.00" fill="#000000"> &#160;&#160;MINT_AND_TRANSFER_TYPEHASH: bytes32</text>
<polyline fill="none" stroke="#000000" points="1304.4033,-254.3 1639.2393,-254.3 "/>
<text text-anchor="start" x="1312.4033" y="-237.7" font-family="Times,serif" font-size="14.00" fill="#000000">Internal:</text>
<text text-anchor="start" x="1312.4033" y="-220.9" font-family="Times,serif" font-size="14.00" fill="#000000"> &#160;&#160;&#160;hash(data: Mint721Data): bytes32</text>
</g>
<!-- 2&#45;&gt;3 -->
<g id="edge4" class="edge">
<title>2&#45;&gt;3</title>
<path fill="none" stroke="#000000" stroke-dasharray="5,2" d="M1249.946,-167.332C1273.5396,-180.5782 1298.0921,-194.3628 1321.8969,-207.7276"/>
<polygon fill="#000000" stroke="#000000" points="1320.1969,-210.787 1330.6301,-212.6307 1323.6238,-204.6831 1320.1969,-210.787"/>
</g>
<!-- 3struct0 -->
<g id="node6" class="node">
<title>3struct0</title>
<polygon fill="#f2f2f2" stroke="#000000" points="1397.3423,-21.3 1397.3423,-154.9 1546.3003,-154.9 1546.3003,-21.3 1397.3423,-21.3"/>
<text text-anchor="middle" x="1471.8213" y="-138.3" font-family="Times,serif" font-size="14.00" fill="#000000">&lt;&lt;struct&gt;&gt;</text>
<text text-anchor="middle" x="1471.8213" y="-121.5" font-family="Times,serif" font-size="14.00" fill="#000000">Mint721Data</text>
<polyline fill="none" stroke="#000000" points="1397.3423,-113.3 1546.3003,-113.3 "/>
<text text-anchor="start" x="1405.3423" y="-96.7" font-family="Times,serif" font-size="14.00" fill="#000000">tokenId: uint</text>
<text text-anchor="start" x="1405.3423" y="-79.9" font-family="Times,serif" font-size="14.00" fill="#000000">tokenURI: string</text>
<text text-anchor="start" x="1405.3423" y="-63.1" font-family="Times,serif" font-size="14.00" fill="#000000">creators: LibPart.Part[]</text>
<text text-anchor="start" x="1405.3423" y="-46.3" font-family="Times,serif" font-size="14.00" fill="#000000">royalties: LibPart.Part[]</text>
<text text-anchor="start" x="1405.3423" y="-29.5" font-family="Times,serif" font-size="14.00" fill="#000000">signatures: bytes[]</text>
</g>
<!-- 3struct0&#45;&gt;3 -->
<g id="edge2" class="edge">
<title>3struct0&#45;&gt;3</title>
<path fill="none" stroke="#000000" d="M1471.8213,-155.114C1471.8213,-169.5779 1471.8213,-185.1082 1471.8213,-200.328"/>
<polygon fill="#000000" stroke="#000000" points="1471.8214,-200.4411 1475.8213,-206.4411 1471.8213,-212.4411 1467.8213,-206.441 1471.8214,-200.4411"/>
</g>
</g>
</svg>
