<?xml version="1.0" encoding="UTF-8" standalone="no"?>
<!DOCTYPE svg PUBLIC "-//W3C//DTD SVG 1.1//EN"
 "http://www.w3.org/Graphics/SVG/1.1/DTD/svg11.dtd">
<!-- Generated by graphviz version 2.40.1 (20161225.0304)
 -->
<!-- Title: UmlClassDiagram Pages: 1 -->
<svg width="2570pt" height="346pt"
 viewBox="0.00 0.00 2569.63 346.00" xmlns="http://www.w3.org/2000/svg" xmlns:xlink="http://www.w3.org/1999/xlink">
<g id="graph0" class="graph" transform="scale(1 1) rotate(0) translate(4 342)">
<title>UmlClassDiagram</title>
<polygon fill="#ffffff" stroke="transparent" points="-4,4 -4,-342 2565.6278,-342 2565.6278,4 -4,4"/>
<!-- 0 -->
<g id="node1" class="node">
<title>0</title>
<polygon fill="#f2f2f2" stroke="#000000" points="0,-204.3 0,-312.3 574.3032,-312.3 574.3032,-204.3 0,-204.3"/>
<text text-anchor="middle" x="287.1516" y="-295.7" font-family="Times,serif" font-size="14.00" fill="#000000">&lt;&lt;Interface&gt;&gt;</text>
<text text-anchor="middle" x="287.1516" y="-278.9" font-family="Times,serif" font-size="14.00" fill="#000000">IERC2981</text>
<polyline fill="none" stroke="#000000" points="0,-270.7 574.3032,-270.7 "/>
<text text-anchor="middle" x="287.1516" y="-254.1" font-family="Times,serif" font-size="14.00" fill="#000000"> </text>
<polyline fill="none" stroke="#000000" points="0,-245.9 574.3032,-245.9 "/>
<text text-anchor="start" x="8" y="-229.3" font-family="Times,serif" font-size="14.00" fill="#000000">External:</text>
<text text-anchor="start" x="8" y="-212.5" font-family="Times,serif" font-size="14.00" fill="#000000"> &#160;&#160;&#160;&#160;royaltyInfo(_tokenId: uint256, _salePrice: uint256): (receiver: address, royaltyAmount: uint256)</text>
</g>
<!-- 1 -->
<g id="node2" class="node">
<title>1</title>
<polygon fill="#f2f2f2" stroke="#000000" points="1663.0877,-.5 1663.0877,-142.1 2049.2155,-142.1 2049.2155,-.5 1663.0877,-.5"/>
<text text-anchor="middle" x="1856.1516" y="-125.5" font-family="Times,serif" font-size="14.00" fill="#000000">&lt;&lt;Library&gt;&gt;</text>
<text text-anchor="middle" x="1856.1516" y="-108.7" font-family="Times,serif" font-size="14.00" fill="#000000">LibRoyalties2981</text>
<polyline fill="none" stroke="#000000" points="1663.0877,-100.5 2049.2155,-100.5 "/>
<text text-anchor="start" x="1671.0877" y="-83.9" font-family="Times,serif" font-size="14.00" fill="#000000">Public:</text>
<text text-anchor="start" x="1671.0877" y="-67.1" font-family="Times,serif" font-size="14.00" fill="#000000"> &#160;&#160;_INTERFACE_ID_ROYALTIES: bytes4</text>
<text text-anchor="start" x="1671.0877" y="-50.3" font-family="Times,serif" font-size="14.00" fill="#000000"> &#160;&#160;_WEIGHT_VALUE: uint96</text>
<polyline fill="none" stroke="#000000" points="1663.0877,-42.1 2049.2155,-42.1 "/>
<text text-anchor="start" x="1671.0877" y="-25.5" font-family="Times,serif" font-size="14.00" fill="#000000">Internal:</text>
<text text-anchor="start" x="1671.0877" y="-8.7" font-family="Times,serif" font-size="14.00" fill="#000000"> &#160;&#160;&#160;calculateRoyalties(to: address, amount: uint256): LibPart.Part[]</text>
</g>
<!-- 2 -->
<g id="node3" class="node">
<title>2</title>
<polygon fill="#f2f2f2" stroke="#000000" points="2067.2189,-17.3 2067.2189,-125.3 2283.0843,-125.3 2283.0843,-17.3 2067.2189,-17.3"/>
<text text-anchor="middle" x="2175.1516" y="-108.7" font-family="Times,serif" font-size="14.00" fill="#000000">&lt;&lt;Library&gt;&gt;</text>
<text text-anchor="middle" x="2175.1516" y="-91.9" font-family="Times,serif" font-size="14.00" fill="#000000">LibRoyaltiesV1</text>
<polyline fill="none" stroke="#000000" points="2067.2189,-83.7 2283.0843,-83.7 "/>
<text text-anchor="start" x="2075.2189" y="-67.1" font-family="Times,serif" font-size="14.00" fill="#000000">Public:</text>
<text text-anchor="start" x="2075.2189" y="-50.3" font-family="Times,serif" font-size="14.00" fill="#000000"> &#160;&#160;_INTERFACE_ID_FEES: bytes4</text>
<polyline fill="none" stroke="#000000" points="2067.2189,-42.1 2283.0843,-42.1 "/>
<text text-anchor="middle" x="2175.1516" y="-25.5" font-family="Times,serif" font-size="14.00" fill="#000000"> </text>
</g>
<!-- 3 -->
<g id="node4" class="node">
<title>3</title>
<polygon fill="#f2f2f2" stroke="#000000" points="2300.6754,-17.3 2300.6754,-125.3 2561.6278,-125.3 2561.6278,-17.3 2300.6754,-17.3"/>
<text text-anchor="middle" x="2431.1516" y="-108.7" font-family="Times,serif" font-size="14.00" fill="#000000">&lt;&lt;Library&gt;&gt;</text>
<text text-anchor="middle" x="2431.1516" y="-91.9" font-family="Times,serif" font-size="14.00" fill="#000000">LibRoyaltiesV2</text>
<polyline fill="none" stroke="#000000" points="2300.6754,-83.7 2561.6278,-83.7 "/>
<text text-anchor="start" x="2308.6754" y="-67.1" font-family="Times,serif" font-size="14.00" fill="#000000">Public:</text>
<text text-anchor="start" x="2308.6754" y="-50.3" font-family="Times,serif" font-size="14.00" fill="#000000"> &#160;&#160;_INTERFACE_ID_ROYALTIES: bytes4</text>
<polyline fill="none" stroke="#000000" points="2300.6754,-42.1 2561.6278,-42.1 "/>
<text text-anchor="middle" x="2431.1516" y="-25.5" font-family="Times,serif" font-size="14.00" fill="#000000"> </text>
</g>
<!-- 4 -->
<g id="node5" class="node">
<title>4</title>
<polygon fill="#f2f2f2" stroke="#000000" points="1454.3756,-179.1 1454.3756,-337.5 1945.9276,-337.5 1945.9276,-179.1 1454.3756,-179.1"/>
<text text-anchor="middle" x="1700.1516" y="-320.9" font-family="Times,serif" font-size="14.00" fill="#000000">&lt;&lt;Interface&gt;&gt;</text>
<text text-anchor="middle" x="1700.1516" y="-304.1" font-family="Times,serif" font-size="14.00" fill="#000000">RoyaltiesV1</text>
<polyline fill="none" stroke="#000000" points="1454.3756,-295.9 1945.9276,-295.9 "/>
<text text-anchor="middle" x="1700.1516" y="-279.3" font-family="Times,serif" font-size="14.00" fill="#000000"> </text>
<polyline fill="none" stroke="#000000" points="1454.3756,-271.1 1945.9276,-271.1 "/>
<text text-anchor="start" x="1462.3756" y="-254.5" font-family="Times,serif" font-size="14.00" fill="#000000">External:</text>
<text text-anchor="start" x="1462.3756" y="-237.7" font-family="Times,serif" font-size="14.00" fill="#000000"> &#160;&#160;&#160;&#160;getFeeRecipients(id: uint256): address[]</text>
<text text-anchor="start" x="1462.3756" y="-220.9" font-family="Times,serif" font-size="14.00" fill="#000000"> &#160;&#160;&#160;&#160;getFeeBps(id: uint256): uint[]</text>
<text text-anchor="start" x="1462.3756" y="-204.1" font-family="Times,serif" font-size="14.00" fill="#000000">Public:</text>
<text text-anchor="start" x="1462.3756" y="-187.3" font-family="Times,serif" font-size="14.00" fill="#000000"> &#160;&#160;&#160;&lt;&lt;event&gt;&gt; SecondarySaleFees(tokenId: uint256, recipients: address[], bps: uint[])</text>
</g>
<!-- 5 -->
<g id="node6" class="node">
<title>5</title>
<polygon fill="#f2f2f2" stroke="#000000" points="591.9591,-187.5 591.9591,-329.1 1000.3441,-329.1 1000.3441,-187.5 591.9591,-187.5"/>
<text text-anchor="middle" x="796.1516" y="-312.5" font-family="Times,serif" font-size="14.00" fill="#000000">&lt;&lt;Interface&gt;&gt;</text>
<text text-anchor="middle" x="796.1516" y="-295.7" font-family="Times,serif" font-size="14.00" fill="#000000">RoyaltiesV2</text>
<polyline fill="none" stroke="#000000" points="591.9591,-287.5 1000.3441,-287.5 "/>
<text text-anchor="middle" x="796.1516" y="-270.9" font-family="Times,serif" font-size="14.00" fill="#000000"> </text>
<polyline fill="none" stroke="#000000" points="591.9591,-262.7 1000.3441,-262.7 "/>
<text text-anchor="start" x="599.9591" y="-246.1" font-family="Times,serif" font-size="14.00" fill="#000000">External:</text>
<text text-anchor="start" x="599.9591" y="-229.3" font-family="Times,serif" font-size="14.00" fill="#000000"> &#160;&#160;&#160;&#160;getRaribleV2Royalties(id: uint256): LibPart.Part[]</text>
<text text-anchor="start" x="599.9591" y="-212.5" font-family="Times,serif" font-size="14.00" fill="#000000">Public:</text>
<text text-anchor="start" x="599.9591" y="-195.7" font-family="Times,serif" font-size="14.00" fill="#000000"> &#160;&#160;&#160;&lt;&lt;event&gt;&gt; RoyaltiesSet(tokenId: uint256, royalties: LibPart.Part[])</text>
</g>
<!-- 6 -->
<g id="node7" class="node">
<title>6</title>
<polygon fill="#f2f2f2" stroke="#000000" points="1018.2915,-179.1 1018.2915,-337.5 1436.0117,-337.5 1436.0117,-179.1 1018.2915,-179.1"/>
<text text-anchor="middle" x="1227.1516" y="-320.9" font-family="Times,serif" font-size="14.00" fill="#000000">&lt;&lt;Abstract&gt;&gt;</text>
<text text-anchor="middle" x="1227.1516" y="-304.1" font-family="Times,serif" font-size="14.00" fill="#000000">AbstractRoyalties</text>
<polyline fill="none" stroke="#000000" points="1018.2915,-295.9 1436.0117,-295.9 "/>
<text text-anchor="start" x="1026.2915" y="-279.3" font-family="Times,serif" font-size="14.00" fill="#000000">Internal:</text>
<text text-anchor="start" x="1026.2915" y="-262.5" font-family="Times,serif" font-size="14.00" fill="#000000"> &#160;&#160;royalties: mapping(uint256=&gt;LibPart.Part[])</text>
<polyline fill="none" stroke="#000000" points="1018.2915,-254.3 1436.0117,-254.3 "/>
<text text-anchor="start" x="1026.2915" y="-237.7" font-family="Times,serif" font-size="14.00" fill="#000000">Internal:</text>
<text text-anchor="start" x="1026.2915" y="-220.9" font-family="Times,serif" font-size="14.00" fill="#000000"> &#160;&#160;&#160;&lt;&lt;abstract&gt;&gt; _onRoyaltiesSet(id: uint256, _royalties: LibPart.Part[])</text>
<text text-anchor="start" x="1026.2915" y="-204.1" font-family="Times,serif" font-size="14.00" fill="#000000"> &#160;&#160;&#160;_saveRoyalties(id: uint256, _royalties: LibPart.Part[])</text>
<text text-anchor="start" x="1026.2915" y="-187.3" font-family="Times,serif" font-size="14.00" fill="#000000"> &#160;&#160;&#160;_updateAccount(_id: uint256, _from: address, _to: address)</text>
</g>
<!-- 7 -->
<g id="node8" class="node">
<title>7</title>
<polygon fill="#f2f2f2" stroke="#000000" points="1305.5958,-.5 1305.5958,-142.1 1644.7074,-142.1 1644.7074,-.5 1305.5958,-.5"/>
<text text-anchor="middle" x="1475.1516" y="-125.5" font-family="Times,serif" font-size="14.00" fill="#000000">RoyaltiesV1Impl</text>
<polyline fill="none" stroke="#000000" points="1305.5958,-117.3 1644.7074,-117.3 "/>
<text text-anchor="middle" x="1475.1516" y="-100.7" font-family="Times,serif" font-size="14.00" fill="#000000"> </text>
<polyline fill="none" stroke="#000000" points="1305.5958,-92.5 1644.7074,-92.5 "/>
<text text-anchor="start" x="1313.5958" y="-75.9" font-family="Times,serif" font-size="14.00" fill="#000000">Internal:</text>
<text text-anchor="start" x="1313.5958" y="-59.1" font-family="Times,serif" font-size="14.00" fill="#000000"> &#160;&#160;&#160;_onRoyaltiesSet(id: uint256, _royalties: LibPart.Part[])</text>
<text text-anchor="start" x="1313.5958" y="-42.3" font-family="Times,serif" font-size="14.00" fill="#000000">Public:</text>
<text text-anchor="start" x="1313.5958" y="-25.5" font-family="Times,serif" font-size="14.00" fill="#000000"> &#160;&#160;&#160;getFeeRecipients(id: uint256): address[]</text>
<text text-anchor="start" x="1313.5958" y="-8.7" font-family="Times,serif" font-size="14.00" fill="#000000"> &#160;&#160;&#160;getFeeBps(id: uint256): uint[]</text>
</g>
<!-- 7&#45;&gt;4 -->
<g id="edge2" class="edge">
<title>7&#45;&gt;4</title>
<path fill="none" stroke="#000000" stroke-dasharray="5,2" d="M1560.5353,-142.2633C1567.4077,-147.9751 1574.4237,-153.8062 1581.4722,-159.6642"/>
<polygon fill="none" stroke="#000000" points="1574.8844,-167.8421 1604.6676,-178.9422 1588.3071,-151.6918 1574.8844,-167.8421"/>
</g>
<!-- 7&#45;&gt;6 -->
<g id="edge1" class="edge">
<title>7&#45;&gt;6</title>
<path fill="none" stroke="#000000" d="M1381.0398,-142.2633C1372.9681,-148.3496 1364.7168,-154.5714 1356.4339,-160.817"/>
<polygon fill="none" stroke="#000000" points="1350.0281,-152.4967 1332.3962,-178.9422 1362.6714,-169.2642 1350.0281,-152.4967"/>
</g>
<!-- 8 -->
<g id="node9" class="node">
<title>8</title>
<polygon fill="#f2f2f2" stroke="#000000" points="530.1876,-.5 530.1876,-142.1 1062.1156,-142.1 1062.1156,-.5 530.1876,-.5"/>
<text text-anchor="middle" x="796.1516" y="-125.5" font-family="Times,serif" font-size="14.00" fill="#000000">RoyaltiesV2Impl</text>
<polyline fill="none" stroke="#000000" points="530.1876,-117.3 1062.1156,-117.3 "/>
<text text-anchor="middle" x="796.1516" y="-100.7" font-family="Times,serif" font-size="14.00" fill="#000000"> </text>
<polyline fill="none" stroke="#000000" points="530.1876,-92.5 1062.1156,-92.5 "/>
<text text-anchor="start" x="538.1876" y="-75.9" font-family="Times,serif" font-size="14.00" fill="#000000">Internal:</text>
<text text-anchor="start" x="538.1876" y="-59.1" font-family="Times,serif" font-size="14.00" fill="#000000"> &#160;&#160;&#160;_onRoyaltiesSet(id: uint256, _royalties: LibPart.Part[])</text>
<text text-anchor="start" x="538.1876" y="-42.3" font-family="Times,serif" font-size="14.00" fill="#000000">External:</text>
<text text-anchor="start" x="538.1876" y="-25.5" font-family="Times,serif" font-size="14.00" fill="#000000"> &#160;&#160;&#160;getRaribleV2Royalties(id: uint256): LibPart.Part[]</text>
<text text-anchor="start" x="538.1876" y="-8.7" font-family="Times,serif" font-size="14.00" fill="#000000"> &#160;&#160;&#160;royaltyInfo(id: uint256, _salePrice: uint256): (receiver: address, royaltyAmount: uint256)</text>
</g>
<!-- 8&#45;&gt;0 -->
<g id="edge5" class="edge">
<title>8&#45;&gt;0</title>
<path fill="none" stroke="#000000" stroke-dasharray="5,2" d="M603.3577,-142.13C557.206,-159.0855 508.1732,-177.0995 462.8416,-193.7538"/>
<polygon fill="none" stroke="#000000" points="458.9456,-183.9988 434.4069,-204.2003 466.1875,-203.7107 458.9456,-183.9988"/>
</g>
<!-- 8&#45;&gt;5 -->
<g id="edge4" class="edge">
<title>8&#45;&gt;5</title>
<path fill="none" stroke="#000000" stroke-dasharray="5,2" d="M796.1516,-142.2633C796.1516,-147.2268 796.1516,-152.2804 796.1516,-157.3635"/>
<polygon fill="none" stroke="#000000" points="785.6517,-157.3851 796.1516,-187.3851 806.6517,-157.3852 785.6517,-157.3851"/>
</g>
<!-- 8&#45;&gt;6 -->
<g id="edge3" class="edge">
<title>8&#45;&gt;6</title>
<path fill="none" stroke="#000000" d="M959.4014,-142.13C978.1593,-150.2686 997.4793,-158.651 1016.7449,-167.0099"/>
<polygon fill="none" stroke="#000000" points="1012.668,-176.6866 1044.3685,-178.995 1021.0265,-157.4218 1012.668,-176.6866"/>
</g>
</g>
</svg>
