<?xml version="1.0" encoding="UTF-8" standalone="no"?>
<!DOCTYPE svg PUBLIC "-//W3C//DTD SVG 1.1//EN"
 "http://www.w3.org/Graphics/SVG/1.1/DTD/svg11.dtd">
<!-- Generated by graphviz version 2.40.1 (20161225.0304)
 -->
<!-- Title: UmlClassDiagram Pages: 1 -->
<svg width="282pt" height="388pt"
 viewBox="0.00 0.00 282.36 388.40" xmlns="http://www.w3.org/2000/svg" xmlns:xlink="http://www.w3.org/1999/xlink">
<g id="graph0" class="graph" transform="scale(1 1) rotate(0) translate(4 384.4)">
<title>UmlClassDiagram</title>
<polygon fill="#ffffff" stroke="transparent" points="-4,4 -4,-384.4 278.3577,-384.4 278.3577,4 -4,4"/>
<!-- 0 -->
<g id="node1" class="node">
<title>0</title>
<polygon fill="#f2f2f2" stroke="#000000" points="10.5859,-120.7 10.5859,-379.9 252.8945,-379.9 252.8945,-120.7 10.5859,-120.7"/>
<text text-anchor="middle" x="131.7402" y="-363.3" font-family="Times,serif" font-size="14.00" fill="#000000">&lt;&lt;Library&gt;&gt;</text>
<text text-anchor="middle" x="131.7402" y="-346.5" font-family="Times,serif" font-size="14.00" fill="#000000">LibAsset</text>
<polyline fill="none" stroke="#000000" points="10.5859,-338.3 252.8945,-338.3 "/>
<text text-anchor="start" x="18.5859" y="-321.7" font-family="Times,serif" font-size="14.00" fill="#000000">Public:</text>
<text text-anchor="start" x="18.5859" y="-304.9" font-family="Times,serif" font-size="14.00" fill="#000000"> &#160;&#160;ETH_ASSET_CLASS: bytes4</text>
<text text-anchor="start" x="18.5859" y="-288.1" font-family="Times,serif" font-size="14.00" fill="#000000"> &#160;&#160;ERC20_ASSET_CLASS: bytes4</text>
<text text-anchor="start" x="18.5859" y="-271.3" font-family="Times,serif" font-size="14.00" fill="#000000"> &#160;&#160;ERC721_ASSET_CLASS: bytes4</text>
<text text-anchor="start" x="18.5859" y="-254.5" font-family="Times,serif" font-size="14.00" fill="#000000"> &#160;&#160;ERC1155_ASSET_CLASS: bytes4</text>
<text text-anchor="start" x="18.5859" y="-237.7" font-family="Times,serif" font-size="14.00" fill="#000000"> &#160;&#160;COLLECTION: bytes4</text>
<text text-anchor="start" x="18.5859" y="-220.9" font-family="Times,serif" font-size="14.00" fill="#000000"> &#160;&#160;CRYPTO_PUNKS: bytes4</text>
<text text-anchor="start" x="18.5859" y="-204.1" font-family="Times,serif" font-size="14.00" fill="#000000"> &#160;&#160;ASSET_TYPE_TYPEHASH: bytes32</text>
<text text-anchor="start" x="18.5859" y="-187.3" font-family="Times,serif" font-size="14.00" fill="#000000"> &#160;&#160;ASSET_TYPEHASH: bytes32</text>
<polyline fill="none" stroke="#000000" points="10.5859,-179.1 252.8945,-179.1 "/>
<text text-anchor="start" x="18.5859" y="-162.5" font-family="Times,serif" font-size="14.00" fill="#000000">Internal:</text>
<text text-anchor="start" x="18.5859" y="-145.7" font-family="Times,serif" font-size="14.00" fill="#000000"> &#160;&#160;&#160;hash(assetType: AssetType): bytes32</text>
<text text-anchor="start" x="18.5859" y="-128.9" font-family="Times,serif" font-size="14.00" fill="#000000"> &#160;&#160;&#160;hash(asset: Asset): bytes32</text>
</g>
<!-- 0struct0 -->
<g id="node2" class="node">
<title>0struct0</title>
<polygon fill="#f2f2f2" stroke="#000000" points="0,-.5 0,-83.7 117.4804,-83.7 117.4804,-.5 0,-.5"/>
<text text-anchor="middle" x="58.7402" y="-67.1" font-family="Times,serif" font-size="14.00" fill="#000000">&lt;&lt;struct&gt;&gt;</text>
<text text-anchor="middle" x="58.7402" y="-50.3" font-family="Times,serif" font-size="14.00" fill="#000000">AssetType</text>
<polyline fill="none" stroke="#000000" points="0,-42.1 117.4804,-42.1 "/>
<text text-anchor="start" x="8" y="-25.5" font-family="Times,serif" font-size="14.00" fill="#000000">assetClass: bytes4</text>
<text text-anchor="start" x="8" y="-8.7" font-family="Times,serif" font-size="14.00" fill="#000000">data: bytes</text>
</g>
<!-- 0struct0&#45;&gt;0 -->
<g id="edge1" class="edge">
<title>0struct0&#45;&gt;0</title>
<path fill="none" stroke="#000000" d="M73.3374,-83.732C76.0582,-91.4918 79.0366,-99.9864 82.1625,-108.9016"/>
<polygon fill="#000000" stroke="#000000" points="82.2219,-109.0714 87.9819,-113.4099 86.1925,-120.3955 80.4325,-116.057 82.2219,-109.0714"/>
</g>
<!-- 0struct1 -->
<g id="node3" class="node">
<title>0struct1</title>
<polygon fill="#f2f2f2" stroke="#000000" points="135.1227,-.5 135.1227,-83.7 274.3577,-83.7 274.3577,-.5 135.1227,-.5"/>
<text text-anchor="middle" x="204.7402" y="-67.1" font-family="Times,serif" font-size="14.00" fill="#000000">&lt;&lt;struct&gt;&gt;</text>
<text text-anchor="middle" x="204.7402" y="-50.3" font-family="Times,serif" font-size="14.00" fill="#000000">Asset</text>
<polyline fill="none" stroke="#000000" points="135.1227,-42.1 274.3577,-42.1 "/>
<text text-anchor="start" x="143.1227" y="-25.5" font-family="Times,serif" font-size="14.00" fill="#000000">assetType: AssetType</text>
<text text-anchor="start" x="143.1227" y="-8.7" font-family="Times,serif" font-size="14.00" fill="#000000">value: uint</text>
</g>
<!-- 0struct1&#45;&gt;0 -->
<g id="edge2" class="edge">
<title>0struct1&#45;&gt;0</title>
<path fill="none" stroke="#000000" d="M190.143,-83.732C187.4222,-91.4918 184.4438,-99.9864 181.3179,-108.9016"/>
<polygon fill="#000000" stroke="#000000" points="181.2585,-109.0714 183.0479,-116.057 177.2879,-120.3955 175.4985,-113.4099 181.2585,-109.0714"/>
</g>
</g>
</svg>
