<?xml version="1.0" encoding="UTF-8" standalone="no"?>
<!DOCTYPE svg PUBLIC "-//W3C//DTD SVG 1.1//EN"
 "http://www.w3.org/Graphics/SVG/1.1/DTD/svg11.dtd">
<!-- Generated by graphviz version 2.40.1 (20161225.0304)
 -->
<!-- Title: UmlClassDiagram Pages: 1 -->
<svg width="176pt" height="254pt"
 viewBox="0.00 0.00 175.63 254.00" xmlns="http://www.w3.org/2000/svg" xmlns:xlink="http://www.w3.org/1999/xlink">
<g id="graph0" class="graph" transform="scale(1 1) rotate(0) translate(4 250)">
<title>UmlClassDiagram</title>
<polygon fill="#ffffff" stroke="transparent" points="-4,4 -4,-250 171.6256,-250 171.6256,4 -4,4"/>
<!-- 0 -->
<g id="node1" class="node">
<title>0</title>
<polygon fill="#f2f2f2" stroke="#000000" points="0,-120.7 0,-245.5 167.6256,-245.5 167.6256,-120.7 0,-120.7"/>
<text text-anchor="middle" x="83.8128" y="-228.9" font-family="Times,serif" font-size="14.00" fill="#000000">&lt;&lt;Library&gt;&gt;</text>
<text text-anchor="middle" x="83.8128" y="-212.1" font-family="Times,serif" font-size="14.00" fill="#000000">LibPart</text>
<polyline fill="none" stroke="#000000" points="0,-203.9 167.6256,-203.9 "/>
<text text-anchor="start" x="8" y="-187.3" font-family="Times,serif" font-size="14.00" fill="#000000">Public:</text>
<text text-anchor="start" x="8" y="-170.5" font-family="Times,serif" font-size="14.00" fill="#000000"> &#160;&#160;TYPE_HASH: bytes32</text>
<polyline fill="none" stroke="#000000" points="0,-162.3 167.6256,-162.3 "/>
<text text-anchor="start" x="8" y="-145.7" font-family="Times,serif" font-size="14.00" fill="#000000">Internal:</text>
<text text-anchor="start" x="8" y="-128.9" font-family="Times,serif" font-size="14.00" fill="#000000"> &#160;&#160;&#160;hash(part: Part): bytes32</text>
</g>
<!-- 0struct0 -->
<g id="node2" class="node">
<title>0struct0</title>
<polygon fill="#f2f2f2" stroke="#000000" points="29.3608,-.5 29.3608,-83.7 138.2648,-83.7 138.2648,-.5 29.3608,-.5"/>
<text text-anchor="middle" x="83.8128" y="-67.1" font-family="Times,serif" font-size="14.00" fill="#000000">&lt;&lt;struct&gt;&gt;</text>
<text text-anchor="middle" x="83.8128" y="-50.3" font-family="Times,serif" font-size="14.00" fill="#000000">Part</text>
<polyline fill="none" stroke="#000000" points="29.3608,-42.1 138.2648,-42.1 "/>
<text text-anchor="start" x="37.3608" y="-25.5" font-family="Times,serif" font-size="14.00" fill="#000000">account: address</text>
<text text-anchor="start" x="37.3608" y="-8.7" font-family="Times,serif" font-size="14.00" fill="#000000">value: uint96</text>
</g>
<!-- 0struct0&#45;&gt;0 -->
<g id="edge1" class="edge">
<title>0struct0&#45;&gt;0</title>
<path fill="none" stroke="#000000" d="M83.8128,-84.0229C83.8128,-91.7132 83.8128,-99.9496 83.8128,-108.2668"/>
<polygon fill="#000000" stroke="#000000" points="83.8129,-108.4559 87.8128,-114.4559 83.8128,-120.4559 79.8128,-114.4559 83.8129,-108.4559"/>
</g>
</g>
</svg>
