<?xml version="1.0" encoding="UTF-8" standalone="no"?>
<!DOCTYPE svg PUBLIC "-//W3C//DTD SVG 1.1//EN"
 "http://www.w3.org/Graphics/SVG/1.1/DTD/svg11.dtd">
<!-- Generated by graphviz version 2.40.1 (20161225.0304)
 -->
<!-- Title: UmlClassDiagram Pages: 1 -->
<svg width="3738pt" height="151pt"
 viewBox="0.00 0.00 3737.66 150.60" xmlns="http://www.w3.org/2000/svg" xmlns:xlink="http://www.w3.org/1999/xlink">
<g id="graph0" class="graph" transform="scale(1 1) rotate(0) translate(4 146.6)">
<title>UmlClassDiagram</title>
<polygon fill="#ffffff" stroke="transparent" points="-4,4 -4,-146.6 3733.6615,-146.6 3733.6615,4 -4,4"/>
<!-- 0 -->
<g id="node1" class="node">
<title>0</title>
<polygon fill="#f2f2f2" stroke="#000000" points="0,-25.7 0,-116.9 324.6692,-116.9 324.6692,-25.7 0,-25.7"/>
<text text-anchor="middle" x="162.3346" y="-100.3" font-family="Times,serif" font-size="14.00" fill="#000000">IExchangeV2</text>
<polyline fill="none" stroke="#000000" points="0,-92.1 324.6692,-92.1 "/>
<text text-anchor="middle" x="162.3346" y="-75.5" font-family="Times,serif" font-size="14.00" fill="#000000"> </text>
<polyline fill="none" stroke="#000000" points="0,-67.3 324.6692,-67.3 "/>
<text text-anchor="start" x="8" y="-50.7" font-family="Times,serif" font-size="14.00" fill="#000000">External:</text>
<text text-anchor="start" x="8" y="-33.9" font-family="Times,serif" font-size="14.00" fill="#000000"> &#160;&#160;&#160;setTransferProxy(assetType: bytes4, proxy: address)</text>
</g>
<!-- 1 -->
<g id="node2" class="node">
<title>1</title>
<polygon fill="#f2f2f2" stroke="#000000" points="342.4366,-.5 342.4366,-142.1 546.2326,-142.1 546.2326,-.5 342.4366,-.5"/>
<text text-anchor="middle" x="444.3346" y="-125.5" font-family="Times,serif" font-size="14.00" fill="#000000">Migrations</text>
<polyline fill="none" stroke="#000000" points="342.4366,-117.3 546.2326,-117.3 "/>
<text text-anchor="start" x="350.4366" y="-100.7" font-family="Times,serif" font-size="14.00" fill="#000000">Public:</text>
<text text-anchor="start" x="350.4366" y="-83.9" font-family="Times,serif" font-size="14.00" fill="#000000"> &#160;&#160;owner: address</text>
<text text-anchor="start" x="350.4366" y="-67.1" font-family="Times,serif" font-size="14.00" fill="#000000"> &#160;&#160;last_completed_migration: uint</text>
<polyline fill="none" stroke="#000000" points="342.4366,-58.9 546.2326,-58.9 "/>
<text text-anchor="start" x="350.4366" y="-42.3" font-family="Times,serif" font-size="14.00" fill="#000000">Public:</text>
<text text-anchor="start" x="350.4366" y="-25.5" font-family="Times,serif" font-size="14.00" fill="#000000"> &#160;&#160;&#160;&lt;&lt;modifier&gt;&gt; restricted()</text>
<text text-anchor="start" x="350.4366" y="-8.7" font-family="Times,serif" font-size="14.00" fill="#000000"> &#160;&#160;&#160;setCompleted(completed: uint)</text>
</g>
<!-- 2 -->
<g id="node3" class="node">
<title>2</title>
<polygon fill="#f2f2f2" stroke="#000000" points="564.0077,-25.7 564.0077,-116.9 916.6615,-116.9 916.6615,-25.7 564.0077,-25.7"/>
<text text-anchor="middle" x="740.3346" y="-100.3" font-family="Times,serif" font-size="14.00" fill="#000000">CKTransferProxy</text>
<polyline fill="none" stroke="#000000" points="564.0077,-92.1 916.6615,-92.1 "/>
<text text-anchor="middle" x="740.3346" y="-75.5" font-family="Times,serif" font-size="14.00" fill="#000000"> </text>
<polyline fill="none" stroke="#000000" points="564.0077,-67.3 916.6615,-67.3 "/>
<text text-anchor="start" x="572.0077" y="-50.7" font-family="Times,serif" font-size="14.00" fill="#000000">External:</text>
<text text-anchor="start" x="572.0077" y="-33.9" font-family="Times,serif" font-size="14.00" fill="#000000"> &#160;&#160;&#160;transfer(asset: LibAsset.Asset, from: address, to: address)</text>
</g>
<!-- 3 -->
<g id="node4" class="node">
<title>3</title>
<polygon fill="#f2f2f2" stroke="#000000" points="935.0077,-8.9 935.0077,-133.7 1287.6615,-133.7 1287.6615,-8.9 935.0077,-8.9"/>
<text text-anchor="middle" x="1111.3346" y="-117.1" font-family="Times,serif" font-size="14.00" fill="#000000">TransferProxyForDeprecated</text>
<polyline fill="none" stroke="#000000" points="935.0077,-108.9 1287.6615,-108.9 "/>
<text text-anchor="start" x="943.0077" y="-92.3" font-family="Times,serif" font-size="14.00" fill="#000000">Public:</text>
<text text-anchor="start" x="943.0077" y="-75.5" font-family="Times,serif" font-size="14.00" fill="#000000"> &#160;&#160;ERC721_DEP_ASSET_TYPE: bytes4</text>
<polyline fill="none" stroke="#000000" points="935.0077,-67.3 1287.6615,-67.3 "/>
<text text-anchor="start" x="943.0077" y="-50.7" font-family="Times,serif" font-size="14.00" fill="#000000">External:</text>
<text text-anchor="start" x="943.0077" y="-33.9" font-family="Times,serif" font-size="14.00" fill="#000000"> &#160;&#160;&#160;__TransferProxyForDeprecated_init()</text>
<text text-anchor="start" x="943.0077" y="-17.1" font-family="Times,serif" font-size="14.00" fill="#000000"> &#160;&#160;&#160;transfer(asset: LibAsset.Asset, from: address, to: address)</text>
</g>
<!-- 7 -->
<g id="node5" class="node">
<title>7</title>
<polygon fill="#f2f2f2" stroke="#000000" points="1306.0077,-25.7 1306.0077,-116.9 1658.6615,-116.9 1658.6615,-25.7 1306.0077,-25.7"/>
<text text-anchor="middle" x="1482.3346" y="-100.3" font-family="Times,serif" font-size="14.00" fill="#000000">ERC1155LazyMintTransferProxy</text>
<polyline fill="none" stroke="#000000" points="1306.0077,-92.1 1658.6615,-92.1 "/>
<text text-anchor="middle" x="1482.3346" y="-75.5" font-family="Times,serif" font-size="14.00" fill="#000000"> </text>
<polyline fill="none" stroke="#000000" points="1306.0077,-67.3 1658.6615,-67.3 "/>
<text text-anchor="start" x="1314.0077" y="-50.7" font-family="Times,serif" font-size="14.00" fill="#000000">External:</text>
<text text-anchor="start" x="1314.0077" y="-33.9" font-family="Times,serif" font-size="14.00" fill="#000000"> &#160;&#160;&#160;transfer(asset: LibAsset.Asset, from: address, to: address)</text>
</g>
<!-- 8 -->
<g id="node6" class="node">
<title>8</title>
<polygon fill="#f2f2f2" stroke="#000000" points="1677.0077,-25.7 1677.0077,-116.9 2029.6615,-116.9 2029.6615,-25.7 1677.0077,-25.7"/>
<text text-anchor="middle" x="1853.3346" y="-100.3" font-family="Times,serif" font-size="14.00" fill="#000000">ERC721LazyMintTransferProxy</text>
<polyline fill="none" stroke="#000000" points="1677.0077,-92.1 2029.6615,-92.1 "/>
<text text-anchor="middle" x="1853.3346" y="-75.5" font-family="Times,serif" font-size="14.00" fill="#000000"> </text>
<polyline fill="none" stroke="#000000" points="1677.0077,-67.3 2029.6615,-67.3 "/>
<text text-anchor="start" x="1685.0077" y="-50.7" font-family="Times,serif" font-size="14.00" fill="#000000">External:</text>
<text text-anchor="start" x="1685.0077" y="-33.9" font-family="Times,serif" font-size="14.00" fill="#000000"> &#160;&#160;&#160;transfer(asset: LibAsset.Asset, from: address, to: address)</text>
</g>
<!-- 4 -->
<g id="node7" class="node">
<title>4</title>
<polygon fill="#f2f2f2" stroke="#000000" points="2047.8751,-17.3 2047.8751,-125.3 2612.7941,-125.3 2612.7941,-17.3 2047.8751,-17.3"/>
<text text-anchor="middle" x="2330.3346" y="-108.7" font-family="Times,serif" font-size="14.00" fill="#000000">ERC20TransferProxy</text>
<polyline fill="none" stroke="#000000" points="2047.8751,-100.5 2612.7941,-100.5 "/>
<text text-anchor="middle" x="2330.3346" y="-83.9" font-family="Times,serif" font-size="14.00" fill="#000000"> </text>
<polyline fill="none" stroke="#000000" points="2047.8751,-75.7 2612.7941,-75.7 "/>
<text text-anchor="start" x="2055.8751" y="-59.1" font-family="Times,serif" font-size="14.00" fill="#000000">External:</text>
<text text-anchor="start" x="2055.8751" y="-42.3" font-family="Times,serif" font-size="14.00" fill="#000000"> &#160;&#160;&#160;__ERC20TransferProxy_init()</text>
<text text-anchor="start" x="2055.8751" y="-25.5" font-family="Times,serif" font-size="14.00" fill="#000000"> &#160;&#160;&#160;erc20safeTransferFrom(token: IERC20Upgradeable, from: address, to: address, value: uint256)</text>
</g>
<!-- 5 -->
<g id="node8" class="node">
<title>5</title>
<polygon fill="#f2f2f2" stroke="#000000" points="2631.2138,-8.9 2631.2138,-133.7 3359.4554,-133.7 3359.4554,-8.9 2631.2138,-8.9"/>
<text text-anchor="middle" x="2995.3346" y="-117.1" font-family="Times,serif" font-size="14.00" fill="#000000">TransferProxy</text>
<polyline fill="none" stroke="#000000" points="2631.2138,-108.9 3359.4554,-108.9 "/>
<text text-anchor="middle" x="2995.3346" y="-92.3" font-family="Times,serif" font-size="14.00" fill="#000000"> </text>
<polyline fill="none" stroke="#000000" points="2631.2138,-84.1 3359.4554,-84.1 "/>
<text text-anchor="start" x="2639.2138" y="-67.5" font-family="Times,serif" font-size="14.00" fill="#000000">External:</text>
<text text-anchor="start" x="2639.2138" y="-50.7" font-family="Times,serif" font-size="14.00" fill="#000000"> &#160;&#160;&#160;__TransferProxy_init()</text>
<text text-anchor="start" x="2639.2138" y="-33.9" font-family="Times,serif" font-size="14.00" fill="#000000"> &#160;&#160;&#160;erc721safeTransferFrom(token: IERC721Upgradeable, from: address, to: address, tokenId: uint256)</text>
<text text-anchor="start" x="2639.2138" y="-17.1" font-family="Times,serif" font-size="14.00" fill="#000000"> &#160;&#160;&#160;erc1155safeTransferFrom(token: IERC1155Upgradeable, from: address, to: address, id: uint256, value: uint256, data: bytes)</text>
</g>
<!-- 6 -->
<g id="node9" class="node">
<title>6</title>
<polygon fill="#f2f2f2" stroke="#000000" points="3377.0077,-25.7 3377.0077,-116.9 3729.6615,-116.9 3729.6615,-25.7 3377.0077,-25.7"/>
<text text-anchor="middle" x="3553.3346" y="-100.3" font-family="Times,serif" font-size="14.00" fill="#000000">PunkTransferProxy</text>
<polyline fill="none" stroke="#000000" points="3377.0077,-92.1 3729.6615,-92.1 "/>
<text text-anchor="middle" x="3553.3346" y="-75.5" font-family="Times,serif" font-size="14.00" fill="#000000"> </text>
<polyline fill="none" stroke="#000000" points="3377.0077,-67.3 3729.6615,-67.3 "/>
<text text-anchor="start" x="3385.0077" y="-50.7" font-family="Times,serif" font-size="14.00" fill="#000000">External:</text>
<text text-anchor="start" x="3385.0077" y="-33.9" font-family="Times,serif" font-size="14.00" fill="#000000"> &#160;&#160;&#160;transfer(asset: LibAsset.Asset, from: address, to: address)</text>
</g>
</g>
</svg>
